<?xml version="1.0" standalone="no"?><!DOCTYPE svg PUBLIC "-//W3C//DTD SVG 1.1//EN" "http://www.w3.org/Graphics/SVG/1.1/DTD/svg11.dtd"><svg xmlns="http://www.w3.org/2000/svg" version="1.1" width="295.2px" height="204.7px" viewBox="0 -85 295.2 204.7" style="top:-85px">  <desc>Slides.com</desc>  <defs/>  <g id="Polygon863">    <path d="M 18.5 13.3 C 17.2 8.3 15.5 5.9 10.9 6 C 7.9 6 6.1 7.4 6.1 10.2 C 6.1 13.6 9.4 15.2 12.7 17.1 C 16.7 19.4 21.2 21.4 21.2 26.8 C 21.2 32 17.3 34.8 12.1 34.8 C 7.4 34.8 5.6 33.5 4.6 33.5 C 4 33.5 3.4 34.1 3.4 35 C 3.38 34.96 2 35 2 35 L 1.6 25.2 C 1.6 25.2 2.97 25.24 3 25.2 C 4.5 31.5 6.8 32.9 11.4 32.8 C 14.8 32.8 16.9 31.5 16.9 28.1 C 16.9 24.1 13.1 22.5 9.5 20.4 C 5.9 18.4 2.2 16.2 2.2 11.5 C 2.2 6.7 6.1 4.2 10.8 4.2 C 14.9 4.2 15.8 5.6 16.9 5.6 C 17.6 5.6 18.1 5.2 18.3 4.3 C 18.32 4.27 19.5 4.3 19.5 4.3 L 19.8 13.3 C 19.8 13.3 18.45 13.27 18.5 13.3 Z M 34.4 34.3 L 24 34.3 C 24 34.3 24.03 32.98 24 33 C 27 33 27.2 32.3 27.2 29.7 C 27.2 29.7 27.2 7.2 27.2 7.2 C 27.2 5.3 26.4 5.2 25.3 5.2 C 24.52 5.22 23.8 5.3 23.8 5.3 L 23.8 4.1 L 29.8 2.5 L 30.9 2.5 C 30.9 2.5 30.91 29.74 30.9 29.7 C 30.9 32.4 31.1 33 34.4 33 C 34.38 32.98 34.4 34.3 34.4 34.3 Z M 47 34.3 L 36.9 34.3 C 36.9 34.3 36.85 33.03 36.9 33 C 39.9 33 40 32.3 40 29.7 C 40 29.7 40 17.2 40 17.2 C 40 15.3 39.3 15.1 38 15.1 C 37.39 15.07 36.9 15.2 36.9 15.2 L 36.9 13.9 L 42.6 12.6 L 43.7 12.6 C 43.7 12.6 43.74 29.74 43.7 29.7 C 43.7 32.4 44 33 47 33 C 46.98 33.03 47 34.3 47 34.3 Z M 44.5 6.5 C 44.5 7.9 43.5 9.1 41.9 9.1 C 40.4 9.1 39.4 7.9 39.4 6.5 C 39.4 5.2 40.4 4 41.9 4 C 43.5 4 44.5 5.2 44.5 6.5 Z M 65.6 34.5 L 64.6 34.5 L 64.6 31.4 C 64.6 31.4 64.39 31.41 64.4 31.4 C 62.7 32.9 60.4 34.6 57.4 34.6 C 52.3 34.6 49.7 30.2 49.7 24.4 C 49.7 17 54.4 12.5 60.1 12.5 C 61.6 12.5 63 12.8 64.4 13.5 C 64.4 13.5 64.4 7.6 64.4 7.6 C 64.4 5.7 64.2 5.3 62.5 5.3 C 62.05 5.26 61.3 5.4 61.3 5.4 L 61.3 4.1 L 67 2.5 L 68.2 2.5 C 68.2 2.5 68.17 29.47 68.2 29.5 C 68.2 31.8 68.8 32.3 70.4 32.3 C 70.42 32.26 71.4 32.3 71.4 32.3 L 71.4 33.5 L 65.6 34.5 Z M 64.4 17.9 C 64.1 16 62.8 14.3 60 14.3 C 56.2 14.3 53.6 17 53.6 22.7 C 53.6 28.9 55.7 31.4 59.5 31.4 C 61.6 31.4 62.9 30.8 64.4 29.7 C 64.4 29.7 64.4 17.9 64.4 17.9 Z M 92 28.5 C 90.4 31.9 88.2 34.7 83.6 34.7 C 78.2 34.7 74 30.8 74 23.6 C 74 16.1 78.3 12.5 83.5 12.5 C 88.4 12.5 91.7 16 91.9 22.3 C 91.9 22.3 77.7 22.3 77.7 22.3 C 77.7 28.5 81.1 31.4 84.7 31.4 C 88.3 31.4 89.7 29.7 91.2 27.9 C 91.2 27.9 92 28.5 92 28.5 Z M 87.7 20.7 C 87.5 17.3 86 14.3 82.8 14.3 C 79.8 14.3 78 16.5 77.6 20.7 C 77.6 20.7 87.7 20.7 87.7 20.7 Z M 96.3 26.9 C 97.2 31.5 99 33.1 102.3 33.1 C 104.5 33.1 106.2 32.3 106.2 30.1 C 106.2 28 105.3 27.2 101.1 25.1 C 97 23 95.2 21.5 95.2 18.1 C 95.2 14.4 98.2 12.5 102.1 12.5 C 104.3 12.5 105.7 13.1 106.8 13.6 C 106.78 13.63 106.8 13.6 106.8 13.6 L 107.6 12.7 L 108.5 12.7 L 108.6 19.6 C 108.6 19.6 107.41 19.57 107.4 19.6 C 106.4 15.3 104.8 14 102 14 C 99.9 14 98.4 14.9 98.4 17 C 98.4 18.7 99.9 19.8 103.6 21.8 C 107.7 23.9 109.9 25.6 109.9 28.9 C 109.9 33.2 106.4 34.8 102.4 34.8 C 99.8 34.8 98.4 34.1 97.2 33.6 C 97.24 33.61 97.2 33.6 97.2 33.6 L 96.2 34.6 L 95.3 34.6 L 95.1 26.9 C 95.1 26.9 96.3 26.91 96.3 26.9 Z M 116.6 34.6 C 114.8 34.6 113.9 33.5 113.9 32 C 113.9 30.5 115 29.2 116.6 29.2 C 118.4 29.2 119.4 30.5 119.4 32 C 119.4 33.4 118.4 34.6 116.6 34.6 Z M 141.4 28.3 C 139.7 31.9 137.5 34.7 132.7 34.7 C 127 34.7 123.7 30.4 123.7 24.1 C 123.7 17.1 127.3 12.5 133.8 12.5 C 138.1 12.5 140.7 14.6 140.7 17.2 C 140.7 18.5 140 19.3 138.8 19.3 C 135.4 19.3 136.9 14.1 133.1 14.1 C 129.4 14.1 127.2 16.8 127.2 22 C 127.2 27.5 129.4 31.4 134.1 31.4 C 137 31.4 138.5 30.2 140.5 27.6 C 140.5 27.6 141.4 28.3 141.4 28.3 Z M 163.8 23.2 C 163.8 30.8 159.7 34.7 153.9 34.7 C 147.6 34.7 143.8 30.7 143.8 23.4 C 143.8 16.9 147.8 12.5 153.9 12.5 C 160 12.5 163.8 16.6 163.8 23.2 Z M 148 22.8 C 148 30 150.2 33 154 32.9 C 157.7 32.9 159.7 30.8 159.7 23.4 C 159.7 17.9 157.7 14.2 153.7 14.2 C 150.3 14.2 148 17.1 148 22.8 Z M 173.7 29.9 C 173.7 32.4 174.3 33 177.1 33 C 177.07 32.98 177.1 34.3 177.1 34.3 L 166.8 34.3 C 166.8 34.3 166.81 32.98 166.8 33 C 169.6 33 170 32.4 170 29.7 C 170 29.7 170 17.1 170 17.1 C 170 15.5 169.3 15.1 168.1 15.1 C 167.4 15.12 166.9 15.2 166.9 15.2 L 166.9 13.9 L 172.5 12.6 L 173.6 12.6 L 173.6 16.2 C 173.6 16.2 173.74 16.24 173.7 16.2 C 176.2 14.1 178.2 12.5 181.3 12.5 C 183.9 12.5 185.4 14 186.3 16.2 C 186.3 16.2 186.5 16.2 186.5 16.2 C 189 13.8 191.2 12.5 193.6 12.5 C 197.1 12.5 199.4 14.4 199.4 19.9 C 199.4 19.9 199.4 29.1 199.4 29.1 C 199.4 31.9 199.6 33 202.7 33 C 202.68 32.98 202.7 34.3 202.7 34.3 L 192.5 34.3 C 192.5 34.3 192.51 32.98 192.5 33 C 195.6 33 195.7 31.8 195.7 29.1 C 195.7 29.1 195.7 20.4 195.7 20.4 C 195.7 16.3 193.9 15.3 191.8 15.3 C 190 15.3 188.1 16.9 186.7 18.1 C 186.7 18.1 186.7 29.1 186.7 29.1 C 186.7 32.2 186.9 33 190.1 33 C 190.12 32.98 190.1 34.3 190.1 34.3 L 179.5 34.3 C 179.5 34.3 179.46 32.98 179.5 33 C 182.7 33 182.9 32.2 182.9 29.1 C 182.9 29.1 182.9 20.2 182.9 20.2 C 182.9 16.3 181.4 15.3 179.3 15.3 C 177 15.3 175 17 173.7 18.2 C 173.7 18.2 173.7 29.9 173.7 29.9 Z " stroke="none" fill="#216c87"/>  </g></svg>