<?xml version="1.0" standalone="no"?><!DOCTYPE svg PUBLIC "-//W3C//DTD SVG 1.1//EN" "http://www.w3.org/Graphics/SVG/1.1/DTD/svg11.dtd"><svg xmlns="http://www.w3.org/2000/svg" version="1.1" width="921px" height="452.8px" viewBox="0 -188 921 452.8" style="top:-188px">  <desc>NVisionIT Interactive</desc>  <defs/>  <g id="Polygon824">    <path d="M 71.5 13.5 C 67.9 13.5 66.5 14.1 65 15.5 C 63.4 16.9 62.4 19.7 62.4 26.9 C 62.4 26.9 62.4 77 62.4 77 L 59.1 77 L 17.7 23.5 L 17.2 23.5 C 17.2 23.5 17.2 61.3 17.2 61.3 C 17.2 71.3 18.8 73.2 26.3 73.2 C 26.3 73.2 26.3 76.2 26.3 76.2 L 2.9 76.2 C 2.9 76.2 2.9 73.2 2.9 73.2 C 10.8 73.2 12.3 71.4 12.3 61.3 C 12.3 61.3 12.3 18.6 12.3 18.6 C 9.1 14.5 7.4 13.5 2.9 13.5 C 2.9 13.5 2.9 10.5 2.9 10.5 L 19.9 10.5 L 56.9 58.8 L 57.4 58.8 C 57.4 58.8 57.4 26.4 57.4 26.4 C 57.4 20.4 57 17.7 55.5 16 C 53.9 14.1 52.1 13.5 47.9 13.5 C 47.9 13.5 47.9 10.5 47.9 10.5 L 71.5 10.5 C 71.5 10.5 71.5 13.5 71.5 13.5 Z M 127.5 21.8 C 128.1 20.3 128.6 18.7 128.6 16.9 C 128.6 14.2 126.6 13.5 121.9 13.5 C 121.9 13.5 121.9 10.5 121.9 10.5 L 142.9 10.5 C 142.9 10.5 142.9 13.5 142.9 13.5 C 137.3 13.5 136 15.2 131.2 26.5 C 131.2 26.5 110.6 76.7 110.6 76.7 L 106.6 76.7 C 106.6 76.7 83.7 22.6 83.7 22.6 C 80.8 15.9 78.6 13.5 73.2 13.5 C 73.2 13.5 73.2 10.5 73.2 10.5 L 100 10.5 C 100 10.5 100 13.5 100 13.5 C 97.4 13.5 93.2 13.6 93.2 17.3 C 93.2 18.6 93.7 20.5 94.9 23.4 C 94.9 23.4 107 53.1 107 53.1 L 110.9 63.6 L 111.4 63.6 L 114.9 53.6 C 114.9 53.6 127.5 21.8 127.5 21.8 Z M 167.9 76.2 L 145.4 76.2 C 145.4 76.2 145.4 73.4 145.4 73.4 C 152.1 73.4 152.4 71.8 152.4 66.1 C 152.4 66.1 152.4 38.2 152.4 38.2 C 152.4 33.9 150.9 33.5 148 33.5 C 146.6 33.5 145.5 33.7 145.5 33.7 L 145.5 30.8 L 158.1 28 L 160.7 28 C 160.7 28 160.7 66.1 160.7 66.1 C 160.7 71.9 161.2 73.4 167.9 73.4 C 167.9 73.4 167.9 76.2 167.9 76.2 Z M 162.4 14.5 C 162.4 17.6 160.2 20.2 156.7 20.2 C 153.3 20.2 151 17.6 151 14.5 C 151 11.5 153.2 8.9 156.7 8.9 C 160.2 8.9 162.4 11.5 162.4 14.5 Z M 177.2 59.8 C 179.3 70.1 183.1 73.6 190.5 73.6 C 195.5 73.6 199.1 71.7 199.1 67 C 199.1 62.3 197.2 60.4 187.9 55.8 C 178.8 51.2 174.7 47.7 174.7 40.3 C 174.7 32.1 181.4 27.7 190 27.7 C 195 27.7 198 29.1 200.5 30.3 C 200.5 30.3 200.6 30.3 200.6 30.3 L 202.3 28.2 L 204.3 28.2 L 204.6 43.5 C 204.6 43.5 201.9 43.5 201.9 43.5 C 199.7 34 196 31.1 189.9 31.1 C 185.3 31.1 181.8 33.2 181.8 37.7 C 181.8 41.6 185.1 44.1 193.5 48.4 C 202.6 53.2 207.5 56.9 207.5 64.3 C 207.5 73.7 199.7 77.3 190.7 77.3 C 184.9 77.3 181.9 75.8 179.3 74.7 C 179.3 74.7 179.1 74.7 179.1 74.7 L 177 77 L 174.9 77 L 174.6 59.8 C 174.6 59.8 177.2 59.8 177.2 59.8 Z M 235.9 76.2 L 213.4 76.2 C 213.4 76.2 213.4 73.4 213.4 73.4 C 220.1 73.4 220.4 71.8 220.4 66.1 C 220.4 66.1 220.4 38.2 220.4 38.2 C 220.4 33.9 218.9 33.5 216 33.5 C 214.6 33.5 213.5 33.7 213.5 33.7 L 213.5 30.8 L 226.1 28 L 228.7 28 C 228.7 28 228.7 66.1 228.7 66.1 C 228.7 71.9 229.2 73.4 235.9 73.4 C 235.9 73.4 235.9 76.2 235.9 76.2 Z M 230.4 14.5 C 230.4 17.6 228.2 20.2 224.7 20.2 C 221.3 20.2 219 17.6 219 14.5 C 219 11.5 221.2 8.9 224.7 8.9 C 228.2 8.9 230.4 11.5 230.4 14.5 Z M 286.7 51.6 C 286.7 68.4 277.5 77.2 264.5 77.2 C 250.5 77.2 242.1 68.2 242.1 52 C 242.1 37.5 251 27.7 264.5 27.7 C 278.2 27.7 286.7 36.8 286.7 51.6 Z M 251.4 50.7 C 251.4 66.6 256.3 73.3 264.9 73.2 C 273.1 73.2 277.5 68.4 277.5 52.1 C 277.5 39.8 273 31.5 264.1 31.5 C 256.5 31.5 251.4 37.9 251.4 50.7 Z M 338.2 66.1 C 338.2 71.7 338.9 73.4 345.6 73.4 C 345.59 73.4 345.6 76.2 345.6 76.2 L 322.5 76.2 C 322.5 76.2 322.49 73.4 322.5 73.4 C 329.6 73.4 329.9 71.7 329.9 66.1 C 329.9 66.1 329.9 48 329.9 48 C 329.9 36 325.2 34.1 320.7 34.1 C 315.3 34.1 311.6 37.7 308.6 40.4 C 308.6 40.4 308.6 66.1 308.6 66.1 C 308.6 71.7 309 73.4 316.2 73.4 C 316.19 73.4 316.2 76.2 316.2 76.2 L 293.3 76.2 C 293.3 76.2 293.29 73.4 293.3 73.4 C 300 73.4 300.3 71.7 300.3 66.1 C 300.3 66.1 300.3 38 300.3 38 C 300.3 34.4 298.8 33.6 296.1 33.6 C 294.39 33.6 293.4 33.8 293.4 33.8 L 293.4 30.9 L 306.1 28 L 308.4 28 L 308.3 36.1 C 308.3 36.1 308.69 36.1 308.7 36.1 C 314.1 31.3 318.5 27.7 324.8 27.7 C 333.9 27.7 338.2 34 338.2 45.5 C 338.2 45.5 338.2 66.1 338.2 66.1 Z M 361 23.7 C 361 15.9 360.6 13.5 351.1 13.5 C 351.09 13.5 351.1 10.5 351.1 10.5 L 379.9 10.5 C 379.9 10.5 379.89 13.5 379.9 13.5 C 370.4 13.5 370.1 15.9 370.1 23.7 C 370.1 23.7 370.1 63.1 370.1 63.1 C 370.1 71.7 371 73.2 379.9 73.2 C 379.89 73.2 379.9 76.2 379.9 76.2 L 351.1 76.2 C 351.1 76.2 351.09 73.2 351.1 73.2 C 360.1 73.2 361 71.7 361 63.1 C 361 63.1 361 23.7 361 23.7 Z M 439 28.5 C 436.8 17.6 435.6 15 424.5 15 C 424.49 15 418.2 15 418.2 15 C 418.2 15 418.19 63.1 418.2 63.1 C 418.2 72.2 419.5 73.2 428.1 73.2 C 428.09 73.2 428.1 76.2 428.1 76.2 L 399.1 76.2 C 399.1 76.2 399.09 73.2 399.1 73.2 C 407.5 73.2 408.9 72.2 408.9 63.1 C 408.89 63.1 408.9 15 408.9 15 C 408.9 15 402.49 15 402.5 15 C 391.5 15 390.1 17.6 388 28.5 C 387.99 28.5 384.9 28.5 384.9 28.5 L 386 10.5 L 441.3 10.5 L 442.1 28.5 C 442.1 28.5 438.99 28.5 439 28.5 Z M 480.5 23.7 C 480.5 15.9 480.1 13.5 470.6 13.5 C 470.59 13.5 470.6 10.5 470.6 10.5 L 499.4 10.5 C 499.4 10.5 499.39 13.5 499.4 13.5 C 489.9 13.5 489.6 15.9 489.6 23.7 C 489.6 23.7 489.6 63.1 489.6 63.1 C 489.6 71.7 490.5 73.2 499.4 73.2 C 499.39 73.2 499.4 76.2 499.4 76.2 L 470.6 76.2 C 470.6 76.2 470.59 73.2 470.6 73.2 C 479.6 73.2 480.5 71.7 480.5 63.1 C 480.5 63.1 480.5 23.7 480.5 23.7 Z M 551 66.1 C 551 71.7 551.7 73.4 558.4 73.4 C 558.39 73.4 558.4 76.2 558.4 76.2 L 535.3 76.2 C 535.3 76.2 535.29 73.4 535.3 73.4 C 542.4 73.4 542.7 71.7 542.7 66.1 C 542.7 66.1 542.7 48 542.7 48 C 542.7 36 538 34.1 533.5 34.1 C 528.1 34.1 524.4 37.7 521.4 40.4 C 521.4 40.4 521.4 66.1 521.4 66.1 C 521.4 71.7 521.8 73.4 529 73.4 C 528.99 73.4 529 76.2 529 76.2 L 506.1 76.2 C 506.1 76.2 506.09 73.4 506.1 73.4 C 512.8 73.4 513.1 71.7 513.1 66.1 C 513.1 66.1 513.1 38 513.1 38 C 513.1 34.4 511.6 33.6 508.9 33.6 C 507.19 33.6 506.2 33.8 506.2 33.8 L 506.2 30.9 L 518.9 28 L 521.2 28 L 521.1 36.1 C 521.1 36.1 521.49 36.1 521.5 36.1 C 526.9 31.3 531.3 27.7 537.6 27.7 C 546.7 27.7 551 34 551 45.5 C 551 45.5 551 66.1 551 66.1 Z M 591.7 68.8 C 587.8 74.2 585.7 77.2 579.3 77.2 C 572.6 77.2 569.7 73.6 569.7 64.6 C 569.69 64.6 569.7 33.6 569.7 33.6 L 564.2 33.6 C 564.2 33.6 564.19 31.3 564.2 31.3 C 568.9 28.4 571.9 23.7 575.5 15.2 C 575.49 15.2 578.1 15.2 578.1 15.2 L 578 29.4 L 589.3 29.4 L 589.3 33.6 L 578 33.6 C 578 33.6 577.99 61.8 578 61.8 C 578 68.9 578.9 71.3 582.8 71.3 C 586 71.3 587.3 70 589.8 67.2 C 589.8 67.2 591.7 68.8 591.7 68.8 Z M 634.9 63.3 C 631.3 70.9 626.5 77.2 616.2 77.2 C 604.2 77.2 594.9 68.5 594.9 52.4 C 594.9 35.7 604.3 27.7 616 27.7 C 626.9 27.7 634.1 35.6 634.6 49.6 C 634.6 49.6 603 49.6 603 49.6 C 603 63.4 610.6 69.7 618.6 69.7 C 626.7 69.7 629.8 66.1 633 61.9 C 633 61.9 634.9 63.3 634.9 63.3 Z M 625.2 45.9 C 624.9 38.5 621.6 31.7 614.5 31.7 C 607.7 31.7 603.7 36.6 602.9 45.9 C 602.9 45.9 625.2 45.9 625.2 45.9 Z M 656.2 38.3 C 656.2 38.3 656.49 38.3 656.5 38.3 C 661.6 30.9 664.6 27.4 669.4 27.4 C 673.3 27.4 675.2 29.6 675.2 33 C 675.2 36.8 673 38.4 670.8 38.4 C 667.5 38.4 665.5 35 664.3 35 C 662 35 658.8 39.2 656.4 43.2 C 656.4 43.2 656.4 66 656.4 66 C 656.4 72.3 658.3 73.3 665.8 73.3 C 665.79 73.3 665.8 76.2 665.8 76.2 L 640.8 76.2 C 640.8 76.2 640.79 73.3 640.8 73.3 C 647.4 73.3 648.1 72.1 648.1 66.5 C 648.1 66.5 648.1 39 648.1 39 C 648.1 35.4 648.1 33.6 644.5 33.6 C 642.49 33.6 641.4 33.8 641.4 33.8 L 641.4 31 L 653.8 28 L 656.2 28 L 656.2 38.3 Z M 704.8 70 C 700.1 74.1 696.5 76.9 690.1 76.9 C 682.4 76.9 678.2 72.1 678.2 65.7 C 678.2 52.5 695.9 49.9 704.5 47.2 C 704.5 47.2 704.5 42.8 704.5 42.8 C 704.5 34.1 701.5 30.8 695.5 30.8 C 689.8 30.8 688.8 32.9 688.8 38.9 C 688.8 42 687.2 43.5 684.4 43.5 C 682.4 43.5 680.2 42 680.2 38.7 C 680.2 33.1 686.9 27.7 697.8 27.7 C 708.7 27.7 712.8 32.7 712.8 43.1 C 712.8 43.1 712.8 65.8 712.8 65.8 C 712.8 69.9 713.7 70.7 715.8 70.7 C 717.7 70.7 719.1 69.7 720.5 68.2 C 720.5 68.2 722 69.8 722 69.8 C 718.7 74.6 716.3 76.7 711.2 76.7 C 706.8 76.7 705.8 74.4 705.2 70 C 705.2 70 704.8 70 704.8 70 Z M 704.5 50.5 C 695.4 52.8 687 55.5 687 63.3 C 687 68.3 689.9 71.4 694.2 71.4 C 697.5 71.4 701.1 69.8 704.5 67 C 704.5 67 704.5 50.5 704.5 50.5 Z M 765.1 62.8 C 761.3 70.9 756.4 77.2 745.7 77.2 C 733.2 77.2 725.7 67.5 725.7 53.6 C 725.7 37.9 733.9 27.7 748.3 27.7 C 757.7 27.7 763.5 32.5 763.5 38.3 C 763.5 41.2 762.1 42.8 759.3 42.8 C 751.9 42.8 755.2 31.4 746.6 31.4 C 738.5 31.4 733.6 37.4 733.6 48.9 C 733.6 61.1 738.5 69.7 748.8 69.7 C 755.3 69.7 758.7 67.2 763.2 61.4 C 763.2 61.4 765.1 62.8 765.1 62.8 Z M 798.2 68.8 C 794.3 74.2 792.2 77.2 785.8 77.2 C 779.1 77.2 776.2 73.6 776.2 64.6 C 776.19 64.6 776.2 33.6 776.2 33.6 L 770.7 33.6 C 770.7 33.6 770.69 31.3 770.7 31.3 C 775.4 28.4 778.4 23.7 782 15.2 C 781.99 15.2 784.6 15.2 784.6 15.2 L 784.5 29.4 L 795.8 29.4 L 795.8 33.6 L 784.5 33.6 C 784.5 33.6 784.49 61.8 784.5 61.8 C 784.5 68.9 785.4 71.3 789.3 71.3 C 792.5 71.3 793.8 70 796.3 67.2 C 796.3 67.2 798.2 68.8 798.2 68.8 Z M 824.2 76.2 L 801.7 76.2 C 801.7 76.2 801.68 73.4 801.7 73.4 C 808.4 73.4 808.7 71.8 808.7 66.1 C 808.7 66.1 808.7 38.2 808.7 38.2 C 808.7 33.9 807.2 33.5 804.3 33.5 C 802.88 33.5 801.8 33.7 801.8 33.7 L 801.8 30.8 L 814.4 28 L 817 28 C 817 28 816.98 66.1 817 66.1 C 817 71.9 817.5 73.4 824.2 73.4 C 824.18 73.4 824.2 76.2 824.2 76.2 Z M 818.7 14.5 C 818.7 17.6 816.5 20.2 813 20.2 C 809.6 20.2 807.3 17.6 807.3 14.5 C 807.3 11.5 809.5 8.9 813 8.9 C 816.5 8.9 818.7 11.5 818.7 14.5 Z M 876.8 31.8 C 872.9 31.8 871.3 33.2 869.3 38.4 C 869.28 38.4 853.5 76.8 853.5 76.8 L 848.7 76.8 C 848.7 76.8 833.78 39.1 833.8 39.1 C 831.2 32.9 830 31.8 825.7 31.8 C 825.68 31.8 825.7 28.9 825.7 28.9 L 846.8 28.9 C 846.8 28.9 846.78 31.8 846.8 31.8 C 842.9 31.8 841.6 32.7 841.6 34.3 C 841.6 35.6 842 36.8 842.6 38.2 C 842.58 38.2 851.1 60.5 851.1 60.5 L 853 66.5 L 853.6 66.5 L 855.7 60.4 C 855.7 60.4 864.28 37.8 864.3 37.8 C 864.4 37.3 865 36.1 865 34.5 C 865 32.3 862.9 31.8 859.3 31.8 C 859.28 31.8 859.3 28.9 859.3 28.9 L 876.8 28.9 C 876.8 28.9 876.78 31.8 876.8 31.8 Z M 918 63.3 C 914.4 70.9 909.6 77.2 899.3 77.2 C 887.3 77.2 878 68.5 878 52.4 C 878 35.7 887.4 27.7 899.1 27.7 C 910 27.7 917.2 35.6 917.7 49.6 C 917.7 49.6 886.1 49.6 886.1 49.6 C 886.1 63.4 893.7 69.7 901.7 69.7 C 909.8 69.7 912.9 66.1 916.1 61.9 C 916.1 61.9 918 63.3 918 63.3 Z M 908.3 45.9 C 908 38.5 904.7 31.7 897.6 31.7 C 890.8 31.7 886.8 36.6 886 45.9 C 886 45.9 908.3 45.9 908.3 45.9 Z " stroke="none" fill="#216c87"/>  </g></svg>