<?xml version="1.0" standalone="no"?><!DOCTYPE svg PUBLIC "-//W3C//DTD SVG 1.1//EN" "http://www.w3.org/Graphics/SVG/1.1/DTD/svg11.dtd"><svg xmlns="http://www.w3.org/2000/svg" version="1.1" width="339.1px" height="204.7px" viewBox="0 -85 339.1 204.7" style="top:-85px">  <desc>Swiss Army Knife</desc>  <defs/>  <g id="Polygon1161">    <path d="M 18.5 13.3 C 17.2 8.3 15.5 5.9 10.9 6 C 7.9 6 6.1 7.4 6.1 10.2 C 6.1 13.6 9.4 15.2 12.7 17.1 C 16.7 19.4 21.2 21.4 21.2 26.8 C 21.2 32 17.3 34.8 12.1 34.8 C 7.4 34.8 5.6 33.5 4.6 33.5 C 4 33.5 3.4 34.1 3.4 35 C 3.38 34.96 2 35 2 35 L 1.6 25.2 C 1.6 25.2 2.97 25.24 3 25.2 C 4.5 31.5 6.8 32.9 11.4 32.8 C 14.8 32.8 16.9 31.5 16.9 28.1 C 16.9 24.1 13.1 22.5 9.5 20.4 C 5.9 18.4 2.2 16.2 2.2 11.5 C 2.2 6.7 6.1 4.2 10.8 4.2 C 14.9 4.2 15.8 5.6 16.9 5.6 C 17.6 5.6 18.1 5.2 18.3 4.3 C 18.32 4.27 19.5 4.3 19.5 4.3 L 19.8 13.3 C 19.8 13.3 18.45 13.27 18.5 13.3 Z M 56.5 14.3 C 54.8 14.3 54.1 14.9 53.2 17.3 C 53.19 17.28 46.5 34.6 46.5 34.6 L 44.3 34.6 L 39.6 21.5 L 39.4 21.5 L 34.1 34.6 L 32 34.6 C 32 34.6 25.29 17.59 25.3 17.6 C 24.1 14.8 23.4 14.3 21.5 14.3 C 21.47 14.31 21.5 13 21.5 13 L 31.1 13 C 31.1 13 31.14 14.31 31.1 14.3 C 29.3 14.3 28.8 14.7 28.8 15.4 C 28.8 16 29 16.5 29.3 17.2 C 29.25 17.19 33.2 27.1 33.2 27.1 L 34 29.7 L 34.3 29.7 L 35.2 27.1 L 38.5 18.9 C 38.5 18.9 37.98 17.59 38 17.6 C 36.9 14.7 36.2 14.3 34.2 14.3 C 34.25 14.31 34.2 13 34.2 13 L 43.7 13 C 43.7 13 43.65 14.31 43.7 14.3 C 41.9 14.3 41.4 14.7 41.4 15.4 C 41.4 16 41.6 16.6 41.8 17.3 C 41.81 17.28 45.5 27.1 45.5 27.1 L 46.3 29.7 L 46.5 29.7 L 47.4 27.1 C 47.4 27.1 50.99 17.05 51 17.1 C 51 16.8 51.3 16.2 51.3 15.4 C 51.3 14.6 50.4 14.3 48.7 14.3 C 48.74 14.31 48.7 13 48.7 13 L 56.5 13 C 56.5 13 56.52 14.31 56.5 14.3 Z M 67.5 34.3 L 57.4 34.3 C 57.4 34.3 57.37 33.03 57.4 33 C 60.4 33 60.5 32.3 60.5 29.7 C 60.5 29.7 60.5 17.2 60.5 17.2 C 60.5 15.3 59.8 15.1 58.5 15.1 C 57.91 15.07 57.4 15.2 57.4 15.2 L 57.4 13.9 L 63.1 12.6 L 64.3 12.6 C 64.3 12.6 64.26 29.74 64.3 29.7 C 64.3 32.4 64.5 33 67.5 33 C 67.5 33.03 67.5 34.3 67.5 34.3 Z M 65 6.5 C 65 7.9 64 9.1 62.5 9.1 C 60.9 9.1 59.9 7.9 59.9 6.5 C 59.9 5.2 60.9 4 62.5 4 C 64 4 65 5.2 65 6.5 Z M 71.7 26.9 C 72.6 31.5 74.3 33.1 77.7 33.1 C 79.9 33.1 81.5 32.3 81.5 30.1 C 81.5 28 80.7 27.2 76.5 25.1 C 72.4 23 70.6 21.5 70.6 18.1 C 70.6 14.4 73.6 12.5 77.4 12.5 C 79.7 12.5 81 13.1 82.2 13.6 C 82.17 13.63 82.2 13.6 82.2 13.6 L 83 12.7 L 83.9 12.7 L 84 19.6 C 84 19.6 82.8 19.57 82.8 19.6 C 81.8 15.3 80.1 14 77.4 14 C 75.3 14 73.8 14.9 73.8 17 C 73.8 18.7 75.2 19.8 79 21.8 C 83.1 23.9 85.3 25.6 85.3 28.9 C 85.3 33.2 81.8 34.8 77.8 34.8 C 75.1 34.8 73.8 34.1 72.6 33.6 C 72.63 33.61 72.5 33.6 72.5 33.6 L 71.6 34.6 L 70.6 34.6 L 70.5 26.9 C 70.5 26.9 71.68 26.91 71.7 26.9 Z M 89.5 26.9 C 90.4 31.5 92.1 33.1 95.4 33.1 C 97.7 33.1 99.3 32.3 99.3 30.1 C 99.3 28 98.5 27.2 94.3 25.1 C 90.2 23 88.3 21.5 88.3 18.1 C 88.3 14.4 91.3 12.5 95.2 12.5 C 97.5 12.5 98.8 13.1 99.9 13.6 C 99.94 13.63 100 13.6 100 13.6 L 100.8 12.7 L 101.7 12.7 L 101.8 19.6 C 101.8 19.6 100.57 19.57 100.6 19.6 C 99.6 15.3 97.9 14 95.2 14 C 93.1 14 91.5 14.9 91.5 17 C 91.5 18.7 93 19.8 96.8 21.8 C 100.9 23.9 103.1 25.6 103.1 28.9 C 103.1 33.2 99.6 34.8 95.5 34.8 C 92.9 34.8 91.6 34.1 90.4 33.6 C 90.4 33.61 90.3 33.6 90.3 33.6 L 89.4 34.6 L 88.4 34.6 L 88.3 26.9 C 88.3 26.9 89.46 26.91 89.5 26.9 Z M 134.9 34.3 C 134.9 34.3 134.91 32.94 134.9 32.9 C 136.3 32.9 138 32.8 138 31.3 C 138 30.6 137.8 29.8 137.2 28.5 C 137.25 28.48 135.5 24.4 135.5 24.4 L 124 24.4 C 124 24.4 121.95 29.2 121.9 29.2 C 121.7 29.9 121.5 30.6 121.5 31.4 C 121.5 32.7 122.4 32.9 124.5 32.9 C 124.47 32.94 124.5 34.3 124.5 34.3 L 115 34.3 C 115 34.3 115.02 32.94 115 32.9 C 117.5 32.9 118.2 32.2 120.3 27.1 C 120.33 27.09 129.9 4.5 129.9 4.5 L 131.7 4.5 C 131.7 4.5 142.38 28.93 142.4 28.9 C 143.7 31.9 144.6 32.9 147 32.9 C 147.01 32.94 147 34.3 147 34.3 L 134.9 34.3 Z M 129.9 10 L 129.7 10 L 124.6 22.6 L 134.8 22.6 L 129.9 10 Z M 155.4 17.2 C 155.4 17.2 155.56 17.23 155.6 17.2 C 157.9 13.9 159.2 12.3 161.4 12.3 C 163.1 12.3 164 13.3 164 14.8 C 164 16.6 163 17.3 162 17.3 C 160.5 17.3 159.6 15.7 159.1 15.7 C 158 15.7 156.6 17.6 155.5 19.4 C 155.5 19.4 155.5 29.7 155.5 29.7 C 155.5 32.5 156.4 33 159.7 33 C 159.75 32.98 159.7 34.3 159.7 34.3 L 148.5 34.3 C 148.5 34.3 148.5 32.98 148.5 33 C 151.5 33 151.8 32.4 151.8 29.9 C 151.8 29.9 151.8 17.5 151.8 17.5 C 151.8 15.9 151.8 15.1 150.2 15.1 C 149.26 15.12 148.8 15.2 148.8 15.2 L 148.8 13.9 L 154.3 12.6 L 155.4 12.6 L 155.4 17.2 Z M 172.6 29.9 C 172.6 32.4 173.2 33 176 33 C 175.99 32.98 176 34.3 176 34.3 L 165.7 34.3 C 165.7 34.3 165.73 32.98 165.7 33 C 168.6 33 168.9 32.4 168.9 29.7 C 168.9 29.7 168.9 17.1 168.9 17.1 C 168.9 15.5 168.3 15.1 167 15.1 C 166.32 15.12 165.8 15.2 165.8 15.2 L 165.8 13.9 L 171.4 12.6 L 172.5 12.6 L 172.5 16.2 C 172.5 16.2 172.66 16.24 172.7 16.2 C 175.1 14.1 177.2 12.5 180.2 12.5 C 182.8 12.5 184.3 14 185.2 16.2 C 185.2 16.2 185.4 16.2 185.4 16.2 C 187.9 13.8 190.2 12.5 192.6 12.5 C 196.1 12.5 198.4 14.4 198.4 19.9 C 198.4 19.9 198.4 29.1 198.4 29.1 C 198.4 31.9 198.5 33 201.6 33 C 201.6 32.98 201.6 34.3 201.6 34.3 L 191.4 34.3 C 191.4 34.3 191.43 32.98 191.4 33 C 194.5 33 194.6 31.8 194.6 29.1 C 194.6 29.1 194.6 20.4 194.6 20.4 C 194.6 16.3 192.9 15.3 190.8 15.3 C 188.9 15.3 187.1 16.9 185.6 18.1 C 185.6 18.1 185.6 29.1 185.6 29.1 C 185.6 32.2 185.8 33 189 33 C 189.04 32.98 189 34.3 189 34.3 L 178.4 34.3 C 178.4 34.3 178.38 32.98 178.4 33 C 181.6 33 181.8 32.2 181.8 29.1 C 181.8 29.1 181.8 20.2 181.8 20.2 C 181.8 16.3 180.3 15.3 178.2 15.3 C 175.9 15.3 173.9 17 172.6 18.2 C 172.6 18.2 172.6 29.9 172.6 29.9 Z M 223.9 14.3 C 222.1 14.3 221.4 15.1 220.8 16.8 C 220.8 16.8 213.8 35.3 213.8 35.3 C 211.2 42.2 209 44.9 205.2 44.9 C 203.4 44.9 202 44.2 202 42.5 C 202 41.2 202.9 40.6 204.1 40.6 C 205.6 40.6 206.9 41.6 207.5 41.6 C 209.2 41.6 211.9 35.4 211.9 34.1 C 211.9 33.5 211 31.6 210.5 30.4 C 210.5 30.4 203.9 15.9 203.9 15.9 C 203.4 14.9 202.8 14.3 201.2 14.3 C 201.19 14.31 201.2 13 201.2 13 L 210.8 13 C 210.8 13 210.82 14.35 210.8 14.4 C 208.8 14.4 208.3 14.8 208.3 15.5 C 208.3 16.1 208.6 16.9 208.9 17.5 C 208.89 17.5 213.3 27.4 213.3 27.4 L 213.9 29.6 L 214.2 29.6 C 214.2 29.6 218.56 16.56 218.6 16.6 C 218.7 16.2 218.8 15.7 218.8 15.4 C 218.8 14.5 217.8 14.3 216.3 14.3 C 216.27 14.31 216.3 13 216.3 13 L 223.9 13 C 223.9 13 223.92 14.31 223.9 14.3 Z M 240 10.7 C 240 7.2 239.8 6.1 235.6 6.1 C 235.57 6.07 235.6 4.7 235.6 4.7 L 248.5 4.7 C 248.5 4.7 248.53 6.07 248.5 6.1 C 244.3 6.1 244.1 7.2 244.1 10.7 C 244.12 10.66 244.1 19.1 244.1 19.1 L 244.3 19.1 C 244.3 19.1 251.64 12.01 251.6 12 C 253.7 10 254.8 8.8 254.8 7.5 C 254.8 6.5 254.4 6.1 253.1 6.1 C 253.12 6.07 252.4 6.1 252.4 6.1 L 252.4 4.7 L 263.4 4.7 C 263.4 4.7 263.43 6.07 263.4 6.1 C 260.9 6.2 260 6.9 257.5 9.2 C 257.53 9.18 247.8 18.3 247.8 18.3 C 247.8 18.3 260.68 31 260.7 31 C 262.2 32.4 263.2 32.9 265.4 32.9 C 265.36 32.94 265.4 34.3 265.4 34.3 L 252.4 34.3 L 252.4 32.9 C 252.4 32.9 253.26 32.94 253.3 32.9 C 254.5 32.9 255 32.7 255 32 C 255 30.6 253 28.7 248.5 24.3 C 248.49 24.25 244.5 20.3 244.5 20.3 L 244.1 20.3 C 244.1 20.3 244.12 28.39 244.1 28.4 C 244.1 32.2 244.6 32.9 248.5 32.9 C 248.53 32.94 248.5 34.3 248.5 34.3 L 235.6 34.3 C 235.6 34.3 235.57 32.94 235.6 32.9 C 239.7 32.9 240 32.4 240 28.4 C 240 28.4 240 10.7 240 10.7 Z M 287.3 29.7 C 287.3 32.3 287.6 33 290.6 33 C 290.61 33.03 290.6 34.3 290.6 34.3 L 280.2 34.3 C 280.2 34.3 280.21 33.03 280.2 33 C 283.4 33 283.5 32.3 283.5 29.7 C 283.5 29.7 283.5 21.6 283.5 21.6 C 283.5 16.2 281.4 15.3 279.4 15.3 C 277 15.3 275.3 17 274 18.2 C 274 18.2 274 29.7 274 29.7 C 274 32.3 274.1 33 277.4 33 C 277.38 33.03 277.4 34.3 277.4 34.3 L 267.1 34.3 C 267.1 34.3 267.07 33.03 267.1 33 C 270.1 33 270.2 32.3 270.2 29.7 C 270.2 29.7 270.2 17.1 270.2 17.1 C 270.2 15.5 269.5 15.1 268.3 15.1 C 267.57 15.12 267.1 15.2 267.1 15.2 L 267.1 13.9 L 272.8 12.6 L 273.9 12.6 L 273.8 16.2 C 273.8 16.2 274 16.24 274 16.2 C 276.4 14.1 278.4 12.5 281.2 12.5 C 285.3 12.5 287.3 15.3 287.3 20.5 C 287.3 20.5 287.3 29.7 287.3 29.7 Z M 303.1 34.3 L 293 34.3 C 293 34.3 292.99 33.03 293 33 C 296 33 296.1 32.3 296.1 29.7 C 296.1 29.7 296.1 17.2 296.1 17.2 C 296.1 15.3 295.5 15.1 294.2 15.1 C 293.53 15.07 293 15.2 293 15.2 L 293 13.9 L 298.7 12.6 L 299.9 12.6 C 299.9 12.6 299.87 29.74 299.9 29.7 C 299.9 32.4 300.1 33 303.1 33 C 303.11 33.03 303.1 34.3 303.1 34.3 Z M 300.6 6.5 C 300.6 7.9 299.6 9.1 298.1 9.1 C 296.5 9.1 295.5 7.9 295.5 6.5 C 295.5 5.2 296.5 4 298.1 4 C 299.6 4 300.6 5.2 300.6 6.5 Z M 309 13.2 C 309 9.6 309.2 7.6 310.4 5.5 C 311.6 3.4 313.2 2.2 316.4 2.2 C 319.3 2.2 321.4 3.3 321.4 5.4 C 321.4 6.7 320.6 7.3 319.6 7.3 C 317.3 7.3 317.1 3.9 314.9 3.9 C 313.2 3.9 312.7 5.2 312.7 9 C 312.7 9 312.7 13.2 312.7 13.2 L 318.2 13.2 L 318.2 15.1 L 312.7 15.1 C 312.7 15.1 312.7 28.93 312.7 28.9 C 312.7 32.4 313.6 33 317.3 33 C 317.29 32.98 317.3 34.3 317.3 34.3 L 305.2 34.3 C 305.2 34.3 305.18 32.98 305.2 33 C 308.5 33 309 32.4 309 28.9 C 308.96 28.93 309 15.1 309 15.1 L 305.5 15.1 L 305.5 13.2 C 305.5 13.2 308.96 13.23 309 13.2 Z M 337.7 28.5 C 336.1 31.9 333.9 34.7 329.3 34.7 C 323.9 34.7 319.7 30.8 319.7 23.6 C 319.7 16.1 323.9 12.5 329.2 12.5 C 334.1 12.5 337.4 16 337.6 22.3 C 337.6 22.3 323.4 22.3 323.4 22.3 C 323.4 28.5 326.8 31.4 330.4 31.4 C 334 31.4 335.4 29.7 336.9 27.9 C 336.9 27.9 337.7 28.5 337.7 28.5 Z M 333.4 20.7 C 333.2 17.3 331.7 14.3 328.5 14.3 C 325.5 14.3 323.7 16.5 323.3 20.7 C 323.3 20.7 333.4 20.7 333.4 20.7 Z " stroke="none" fill="#216c87"/>  </g></svg>