<?xml version="1.0" standalone="no"?><!DOCTYPE svg PUBLIC "-//W3C//DTD SVG 1.1//EN" "http://www.w3.org/Graphics/SVG/1.1/DTD/svg11.dtd"><svg xmlns="http://www.w3.org/2000/svg" version="1.1" width="295.2px" height="204.7px" viewBox="0 -85 295.2 204.7" style="top:-85px">  <desc>Venetian Mask</desc>  <defs/>  <g id="Polygon1200">    <path d="M 24 9.8 C 24.3 9.1 24.5 8.4 24.5 7.6 C 24.5 6.4 23.6 6.1 21.5 6.1 C 21.47 6.07 21.5 4.7 21.5 4.7 L 30.9 4.7 C 30.9 4.7 30.92 6.07 30.9 6.1 C 28.4 6.1 27.8 6.8 25.7 11.9 C 25.65 11.92 16.4 34.5 16.4 34.5 L 14.6 34.5 C 14.6 34.5 4.28 10.17 4.3 10.2 C 3 7.2 2 6.1 -0.5 6.1 C -0.45 6.07 -0.5 4.7 -0.5 4.7 L 11.6 4.7 C 11.6 4.7 11.61 6.07 11.6 6.1 C 10.4 6.1 8.6 6.1 8.6 7.8 C 8.6 8.4 8.8 9.2 9.3 10.5 C 9.32 10.53 14.8 23.9 14.8 23.9 L 16.5 28.6 L 16.7 28.6 L 18.3 24.1 C 18.3 24.1 23.99 9.81 24 9.8 Z M 47.2 28.5 C 45.6 31.9 43.4 34.7 38.8 34.7 C 33.4 34.7 29.2 30.8 29.2 23.6 C 29.2 16.1 33.4 12.5 38.7 12.5 C 43.6 12.5 46.8 16 47.1 22.3 C 47.1 22.3 32.9 22.3 32.9 22.3 C 32.9 28.5 36.3 31.4 39.9 31.4 C 43.5 31.4 44.9 29.7 46.4 27.9 C 46.4 27.9 47.2 28.5 47.2 28.5 Z M 42.8 20.7 C 42.7 17.3 41.2 14.3 38 14.3 C 35 14.3 33.2 16.5 32.8 20.7 C 32.8 20.7 42.8 20.7 42.8 20.7 Z M 70.2 29.7 C 70.2 32.3 70.5 33 73.5 33 C 73.53 33.03 73.5 34.3 73.5 34.3 L 63.1 34.3 C 63.1 34.3 63.13 33.03 63.1 33 C 66.3 33 66.5 32.3 66.5 29.7 C 66.5 29.7 66.5 21.6 66.5 21.6 C 66.5 16.2 64.3 15.3 62.3 15.3 C 59.9 15.3 58.2 17 56.9 18.2 C 56.9 18.2 56.9 29.7 56.9 29.7 C 56.9 32.3 57.1 33 60.3 33 C 60.3 33.03 60.3 34.3 60.3 34.3 L 50 34.3 C 50 34.3 49.99 33.03 50 33 C 53 33 53.1 32.3 53.1 29.7 C 53.1 29.7 53.1 17.1 53.1 17.1 C 53.1 15.5 52.5 15.1 51.3 15.1 C 50.49 15.12 50 15.2 50 15.2 L 50 13.9 L 55.8 12.6 L 56.8 12.6 L 56.7 16.2 C 56.7 16.2 56.92 16.24 56.9 16.2 C 59.4 14.1 61.3 12.5 64.2 12.5 C 68.3 12.5 70.2 15.3 70.2 20.5 C 70.2 20.5 70.2 29.7 70.2 29.7 Z M 94 28.5 C 92.4 31.9 90.2 34.7 85.6 34.7 C 80.2 34.7 76 30.8 76 23.6 C 76 16.1 80.2 12.5 85.5 12.5 C 90.4 12.5 93.6 16 93.9 22.3 C 93.9 22.3 79.6 22.3 79.6 22.3 C 79.6 28.5 83.1 31.4 86.7 31.4 C 90.3 31.4 91.7 29.7 93.1 27.9 C 93.1 27.9 94 28.5 94 28.5 Z M 89.6 20.7 C 89.5 17.3 88 14.3 84.8 14.3 C 81.8 14.3 80 16.5 79.6 20.7 C 79.6 20.7 89.6 20.7 89.6 20.7 Z M 109.4 31 C 107.6 33.4 106.7 34.7 103.8 34.7 C 100.8 34.7 99.5 33.1 99.5 29.1 C 99.49 29.07 99.5 15.1 99.5 15.1 L 97 15.1 C 97 15.1 97.02 14.08 97 14.1 C 99.1 12.8 100.5 10.7 102.1 6.8 C 102.1 6.84 103.3 6.8 103.3 6.8 L 103.2 13.2 L 108.3 13.2 L 108.3 15.1 L 103.2 15.1 C 103.2 15.1 103.23 27.81 103.2 27.8 C 103.2 31 103.6 32.1 105.4 32.1 C 106.8 32.1 107.4 31.5 108.5 30.2 C 108.5 30.2 109.4 31 109.4 31 Z M 121.1 34.3 L 111 34.3 C 111 34.3 110.97 33.03 111 33 C 114 33 114.1 32.3 114.1 29.7 C 114.1 29.7 114.1 17.2 114.1 17.2 C 114.1 15.3 113.4 15.1 112.1 15.1 C 111.51 15.07 111 15.2 111 15.2 L 111 13.9 L 116.7 12.6 L 117.9 12.6 C 117.9 12.6 117.85 29.74 117.9 29.7 C 117.9 32.4 118.1 33 121.1 33 C 121.09 33.03 121.1 34.3 121.1 34.3 Z M 118.6 6.5 C 118.6 7.9 117.6 9.1 116.1 9.1 C 114.5 9.1 113.5 7.9 113.5 6.5 C 113.5 5.2 114.5 4 116.1 4 C 117.6 4 118.6 5.2 118.6 6.5 Z M 136 31.5 C 133.9 33.3 132.3 34.6 129.4 34.6 C 126 34.6 124.1 32.4 124.1 29.6 C 124.1 23.6 132 22.5 135.9 21.2 C 135.9 21.2 135.9 19.3 135.9 19.3 C 135.9 15.3 134.5 13.9 131.8 13.9 C 129.3 13.9 128.8 14.8 128.8 17.5 C 128.8 18.9 128.1 19.6 126.9 19.6 C 126 19.6 125 18.9 125 17.4 C 125 14.9 128 12.5 132.9 12.5 C 137.8 12.5 139.6 14.7 139.6 19.4 C 139.6 19.4 139.6 29.6 139.6 29.6 C 139.6 31.5 140 31.8 141 31.8 C 141.8 31.8 142.5 31.4 143.1 30.7 C 143.1 30.7 143.8 31.4 143.8 31.4 C 142.3 33.6 141.2 34.5 138.9 34.5 C 136.9 34.5 136.5 33.5 136.2 31.5 C 136.2 31.5 136 31.5 136 31.5 Z M 135.9 22.7 C 131.8 23.8 128 25 128 28.5 C 128 30.7 129.3 32.1 131.3 32.1 C 132.7 32.1 134.4 31.4 135.9 30.1 C 135.9 30.1 135.9 22.7 135.9 22.7 Z M 165.6 29.7 C 165.6 32.3 165.9 33 168.9 33 C 168.93 33.03 168.9 34.3 168.9 34.3 L 158.5 34.3 C 158.5 34.3 158.53 33.03 158.5 33 C 161.7 33 161.9 32.3 161.9 29.7 C 161.9 29.7 161.9 21.6 161.9 21.6 C 161.9 16.2 159.7 15.3 157.7 15.3 C 155.3 15.3 153.6 17 152.3 18.2 C 152.3 18.2 152.3 29.7 152.3 29.7 C 152.3 32.3 152.5 33 155.7 33 C 155.7 33.03 155.7 34.3 155.7 34.3 L 145.4 34.3 C 145.4 34.3 145.39 33.03 145.4 33 C 148.4 33 148.5 32.3 148.5 29.7 C 148.5 29.7 148.5 17.1 148.5 17.1 C 148.5 15.5 147.9 15.1 146.7 15.1 C 145.89 15.12 145.4 15.2 145.4 15.2 L 145.4 13.9 L 151.2 12.6 L 152.2 12.6 L 152.1 16.2 C 152.1 16.2 152.32 16.24 152.3 16.2 C 154.8 14.1 156.7 12.5 159.6 12.5 C 163.7 12.5 165.6 15.3 165.6 20.5 C 165.6 20.5 165.6 29.7 165.6 29.7 Z M 206.7 34.3 C 206.7 34.3 206.73 32.94 206.7 32.9 C 210.2 32.9 210.7 32.2 210.7 28.9 C 210.73 28.93 210.7 9.5 210.7 9.5 L 210.6 9.5 L 200.1 34.3 L 199 34.3 L 188.4 9.6 L 188.2 9.6 C 188.2 9.6 188.19 27.72 188.2 27.7 C 188.2 32.4 188.9 32.9 192.3 32.9 C 192.28 32.94 192.3 34.3 192.3 34.3 L 181.7 34.3 C 181.7 34.3 181.71 32.94 181.7 32.9 C 185.4 32.9 186 32.4 186 27.7 C 186 27.7 186 10.2 186 10.2 C 186 6.8 185.4 6.1 181.8 6.1 C 181.8 6.07 181.8 4.7 181.8 4.7 L 191 4.7 L 200.5 27.4 L 200.7 27.4 L 210.1 4.7 L 218.7 4.7 C 218.7 4.7 218.65 6.07 218.7 6.1 C 215.5 6.1 214.7 6.8 214.7 10.2 C 214.7 10.2 214.7 28.9 214.7 28.9 C 214.7 32.2 215.5 32.9 218.7 32.9 C 218.7 32.94 218.7 34.3 218.7 34.3 L 206.7 34.3 Z M 234.4 31.5 C 232.3 33.3 230.7 34.6 227.8 34.6 C 224.3 34.6 222.4 32.4 222.4 29.6 C 222.4 23.6 230.4 22.5 234.3 21.2 C 234.3 21.2 234.3 19.3 234.3 19.3 C 234.3 15.3 232.9 13.9 230.2 13.9 C 227.7 13.9 227.2 14.8 227.2 17.5 C 227.2 18.9 226.5 19.6 225.2 19.6 C 224.3 19.6 223.3 18.9 223.3 17.4 C 223.3 14.9 226.3 12.5 231.3 12.5 C 236.2 12.5 238 14.7 238 19.4 C 238 19.4 238 29.6 238 29.6 C 238 31.5 238.4 31.8 239.4 31.8 C 240.2 31.8 240.8 31.4 241.5 30.7 C 241.5 30.7 242.1 31.4 242.1 31.4 C 240.7 33.6 239.6 34.5 237.3 34.5 C 235.3 34.5 234.9 33.5 234.6 31.5 C 234.6 31.5 234.4 31.5 234.4 31.5 Z M 234.3 22.7 C 230.2 23.8 226.4 25 226.4 28.5 C 226.4 30.7 227.7 32.1 229.6 32.1 C 231.1 32.1 232.7 31.4 234.3 30.1 C 234.3 30.1 234.3 22.7 234.3 22.7 Z M 245.2 26.9 C 246.2 31.5 247.9 33.1 251.2 33.1 C 253.5 33.1 255.1 32.3 255.1 30.1 C 255.1 28 254.2 27.2 250.1 25.1 C 246 23 244.1 21.5 244.1 18.1 C 244.1 14.4 247.1 12.5 251 12.5 C 253.3 12.5 254.6 13.1 255.7 13.6 C 255.73 13.63 255.8 13.6 255.8 13.6 L 256.5 12.7 L 257.4 12.7 L 257.6 19.6 C 257.6 19.6 256.36 19.57 256.4 19.6 C 255.4 15.3 253.7 14 251 14 C 248.9 14 247.3 14.9 247.3 17 C 247.3 18.7 248.8 19.8 252.6 21.8 C 256.7 23.9 258.9 25.6 258.9 28.9 C 258.9 33.2 255.4 34.8 251.3 34.8 C 248.7 34.8 247.4 34.1 246.2 33.6 C 246.19 33.61 246.1 33.6 246.1 33.6 L 245.2 34.6 L 244.2 34.6 L 244.1 26.9 C 244.1 26.9 245.25 26.91 245.2 26.9 Z M 274.4 34.3 C 274.4 34.3 274.41 32.98 274.4 33 C 275.7 33 276.2 32.8 276.2 32.4 C 276.2 32 275.9 31.6 275.7 31.4 C 275.67 31.36 268.6 23.4 268.6 23.4 L 268.3 23.4 C 268.3 23.4 268.33 30.19 268.3 30.2 C 268.3 32.5 268.8 33 271.7 33 C 271.66 32.98 271.7 34.3 271.7 34.3 L 261.4 34.3 C 261.4 34.3 261.45 32.98 261.4 33 C 264.1 33 264.6 32.5 264.6 30 C 264.6 30 264.6 7.5 264.6 7.5 C 264.6 5.6 264.3 5.2 262.8 5.2 C 262.17 5.22 261.3 5.3 261.3 5.3 L 261.3 4.1 L 267.1 2.5 L 268.3 2.5 L 268.3 22.4 L 268.6 22.4 C 268.6 22.4 274.41 16.6 274.4 16.6 C 274.6 16.4 275.2 15.9 275.2 15.2 C 275.2 14.6 274.7 14.4 273 14.4 C 273.01 14.35 273 13 273 13 L 282.7 13 C 282.7 13 282.73 14.35 282.7 14.4 C 279.8 14.4 279 15.2 273.9 19.6 C 273.91 19.62 271.7 21.5 271.7 21.5 C 271.7 21.5 279.58 30.37 279.6 30.4 C 281.7 32.8 282.5 33 284.4 33 C 284.35 32.98 284.4 34.3 284.4 34.3 L 274.4 34.3 Z " stroke="none" fill="#216c87"/>  </g></svg>